<?xml version="1.0" standalone="no"?>
<!DOCTYPE svg PUBLIC "-//W3C//DTD SVG 20010904//EN"
 "http://www.w3.org/TR/2001/REC-SVG-20010904/DTD/svg10.dtd">
<svg version="1.0" xmlns="http://www.w3.org/2000/svg"
 width="808.000000pt" height="808.000000pt" viewBox="0 0 808.000000 808.000000"
 preserveAspectRatio="xMidYMid meet">
<metadata>
Created by potrace 1.14, written by Peter Selinger 2001-2017
</metadata>
<g transform="translate(0.000000,808.000000) scale(0.100000,-0.100000)"
fill="#000000" stroke="none">
<path d="M4018 7915 c-2 -2 -33 -6 -71 -9 -37 -4 -78 -11 -91 -16 -13 -5 -26
-7 -28 -5 -2 2 -37 -5 -78 -16 -41 -11 -85 -22 -97 -24 -41 -9 -244 -95 -319
-135 -240 -128 -460 -324 -617 -548 -20 -28 -37 -54 -37 -57 0 -3 -5 -11 -10
-18 -56 -65 -178 -342 -205 -462 -2 -11 -8 -35 -14 -53 -5 -18 -10 -35 -10
-37 -2 -12 -3 -21 -6 -30 -1 -5 -3 -20 -3 -32 l-2 -23 -1215 0 -1215 0 0 -280
0 -280 1365 0 c1346 0 1365 0 1418 20 116 43 178 142 183 290 4 127 12 180 44
285 11 39 22 77 24 85 2 8 20 51 40 94 164 359 522 623 926 684 59 9 270 9
340 0 179 -23 380 -104 539 -216 59 -42 202 -177 245 -231 34 -44 103 -156
133 -216 39 -77 87 -218 97 -285 3 -19 8 -46 10 -59 3 -12 8 -66 11 -118 6
-110 11 -135 36 -183 26 -50 57 -82 114 -115 l50 -30 1253 -3 1252 -2 0 280 0
280 -1085 0 c-1026 0 -1085 1 -1086 18 -2 51 -48 216 -89 323 -17 42 -30 78
-30 82 0 3 -14 30 -31 59 -17 29 -31 54 -30 56 3 4 -66 118 -108 177 -56 81
-154 195 -228 266 -98 93 -294 239 -321 239 -7 0 -12 4 -12 9 0 5 -8 11 -17
14 -10 3 -29 12 -43 20 -77 44 -265 122 -320 132 -3 0 -22 7 -43 14 -21 7 -48
14 -60 16 -12 2 -58 10 -102 18 -44 8 -87 15 -95 16 -32 4 -359 9 -362 6z"/>
<path d="M0 5050 l0 -280 4040 0 4040 0 0 280 0 280 -4040 0 -4040 0 0 -280z"/>
<path d="M4345 4031 c-6 -5 -93 -52 -195 -104 -102 -53 -223 -116 -270 -141
l-85 -44 0 -1197 c0 -658 3 -1199 7 -1201 4 -3 95 40 203 95 107 55 195 97
195 95 0 -3 6 0 13 6 6 7 41 26 77 44 l65 32 0 1212 c0 667 0 1212 0 1212 -1
0 -5 -4 -10 -9z"/>
<path d="M5865 4031 c-10 -9 -66 -39 -375 -198 -80 -42 -151 -82 -159 -89 -13
-12 -15 -183 -15 -1213 l-1 -1199 107 54 c60 30 111 55 115 55 5 1 19 9 33 18
14 9 87 47 163 85 75 37 138 73 138 79 2 13 5 2417 4 2417 -1 0 -5 -4 -10 -9z"/>
<path d="M1205 3979 c-49 -26 -126 -66 -170 -88 -44 -23 -125 -65 -180 -95
l-100 -54 -3 -1201 c-1 -660 1 -1201 5 -1201 6 0 542 267 551 275 2 2 3 355 2
1858 0 306 -3 557 -7 556 -5 0 -48 -23 -98 -50z"/>
<path d="M2785 4011 c-16 -10 -82 -44 -145 -77 -63 -32 -116 -62 -118 -66 -2
-5 -12 -8 -22 -8 -10 0 -20 -3 -22 -7 -1 -5 -47 -30 -100 -58 -54 -27 -99 -52
-100 -55 -4 -14 -4 -2400 0 -2400 3 0 52 23 108 51 57 27 106 50 110 49 4 -1
10 2 13 7 3 5 76 44 161 87 85 43 157 81 160 86 4 6 5 2313 1 2393 -1 21 -7
21 -46 -2z"/>
<path d="M7315 3991 c-38 -20 -142 -74 -230 -121 -88 -46 -177 -92 -197 -102
-20 -10 -40 -23 -44 -30 -6 -10 -10 -183 -4 -198 1 -3 1 -9 0 -15 -6 -30 -5
-97 1 -101 5 -2 6 -11 2 -20 -8 -23 -9 -175 0 -181 4 -2 5 -9 1 -14 -9 -16
-11 -100 -2 -105 5 -3 5 -10 2 -16 -9 -14 -9 -242 0 -256 4 -7 4 -12 -1 -12
-6 0 -9 -382 -2 -400 1 -3 0 -9 -1 -15 -6 -32 -5 -97 2 -101 5 -3 5 -10 2 -16
-9 -14 -9 -403 0 -417 4 -6 4 -11 -1 -11 -9 0 -9 -280 0 -304 4 -9 3 -16 -1
-16 -9 0 -7 -124 2 -138 3 -6 2 -13 -2 -16 -5 -3 -7 -16 -5 -29 4 -22 8 -21
136 44 73 37 198 100 278 140 l147 74 0 1202 c0 662 -3 1205 -7 1207 -3 2 -37
-13 -76 -33z"/>
<path d="M0 430 l0 -280 4040 0 4040 0 0 280 0 280 -4040 0 -4040 0 0 -280z"/>
</g>
</svg>
