<?xml version="1.0" encoding="UTF-8"?><svg id="Layer_2" xmlns="http://www.w3.org/2000/svg" viewBox="0 0 100.561454122731448 96.657090173830511"><defs><style>.cls-1{fill:#00af68;}.cls-2{fill:#0589d3;}</style></defs><g id="Layer_1-2"><g><path class="cls-1" d="m100.561454122731448,25.252854494727217l-30.16085432721502-.000079515120888c-1.923546510907727-.000006078927981-3.483131699752448-1.559597554758511-3.48313027999211-3.483144321158761.00000602487853-8.162743329223304-6.734952984620577-14.803337866764195-15.014196499295394-14.803364031402452-8.279243514674818-.000026164634619-15.014212326918823,6.640525804312347-15.014218351795535,14.803269133532012-.000001419760338,1.923546766403888-1.559588910850835,3.483128384810698-3.483135421756742,3.483122305886354l-33.405919242676646-.000089770284831v-6.966266627045115l30.204265404084254.000079652185377C31.892265895307901,7.932228641806432,40.980221158607492-.000034519795008,51.903278157993554,0c10.923056999384244.000034519802284,20.011000553121448,7.932355122131412,21.698985759644529,18.286518470664305l26.959190205093364.000069397021434v6.966266627041477Z"/><rect class="cls-2" x="-.000000000203627" y="89.690680447511113" width="100.561454123138702" height="6.966266627043296"/><polygon class="cls-2" points="9.353894125522856 81.93760500314238 9.353915978022087 51.977671843400458 16.320181679771849 48.33099385348396 16.3201598272708 78.421148996367265 9.353894125522856 81.93760500314238"/><rect class="cls-2" x="-.000000000203627" y="32.21897527058718" width="100.561454123138702" height="6.966266627043296"/><polygon class="cls-2" points="85.112033632038219 81.937844419237081 85.112055484538359 51.977911259495158 92.078321186286303 48.331233269578661 92.078299333787072 78.421388412461965 85.112033632038219 81.937844419237081"/><polygon class="cls-1" points="47.232963878780538 81.937724711191549 47.232985731280678 51.977791551445989 54.199251433028621 48.331113561529492 54.199229580529391 78.421268704412796 47.232963878780538 81.937724711191549"/><polygon class="cls-2" points="66.172498755408924 81.937784565216134 66.172520607909973 51.977851405470574 73.138786309658826 48.331173415554076 73.138764457156867 78.421328558437381 66.172498755408924 81.937784565216134"/><polygon class="cls-2" points="28.293429002152152 81.937664857166965 28.293450854652292 51.977731697425043 35.259716556400235 48.331053707508545 35.259694703900095 78.421208850391849 28.293429002152152 81.937664857166965"/></g></g></svg>
