<svg width="1342" height="1778" viewBox="0 0 1342 1778" fill="none" xmlns="http://www.w3.org/2000/svg">
<path d="M0 0H1341.34V238.901H582.229L575.86 239.538L569.49 241.449L560.573 244.634L540.828 251.003L521.72 259.283L505.159 266.29L487.962 275.844L475.223 286.035L458.025 300.048L444.65 312.787L428.726 331.258L412.166 355.462L400.701 380.939L393.694 409.602L390.51 444.634V836.354V1777.5H0V0Z" fill="white"/>
<path d="M855.35 1777.5V1420.5L856.624 1408.65L861.082 1398.46L867.452 1390.81L875.095 1383.17L885.923 1375.53L896.114 1370.43L906.942 1367.88L919.681 1365.97L934.331 1364.7H1341.34V1777.5H855.35Z" fill="white"/>
</svg>
