<?xml version="1.0" encoding="UTF-8"?>
<svg xmlns="http://www.w3.org/2000/svg" xmlns:xlink="http://www.w3.org/1999/xlink" width="0" height="0">
<symbol id="analytics" viewBox="0 -960 960 960"><path d="M280-280h80v-200h-80v200Zm320 0h80v-400h-80v400Zm-160 0h80v-120h-80v120Zm0-200h80v-80h-80v80ZM200-120q-33 0-56.5-23.5T120-200v-560q0-33 23.5-56.5T200-840h560q33 0 56.5 23.5T840-760v560q0 33-23.5 56.5T760-120H200Zm0-80h560v-560H200v560Zm0-560v560-560Z"/></symbol>
<symbol id="bar-chart" viewBox="0 -960 960 960"><path d="M80-120v-80h800v80H80Zm40-120v-280h120v280H120Zm200 0v-480h120v480H320Zm200 0v-360h120v360H520Zm200 0v-600h120v600H720Z"/></symbol>
<symbol id="building-2" viewBox="0 -960 960 960"><path d="M200-280v-280h80v280h-80Zm240 0v-280h80v280h-80ZM80-640v-80l400-200 400 200v80H80Zm179-80h442L480-830 259-720ZM80-120v-80h482q2 21 5 40.5t9 39.5H80Zm600-310v-130h80v90l-80 40ZM800 0q-69-17-114.5-79.5T640-218v-102l160-80 160 80v102q0 76-45.5 138.5T800 0Zm-29-120 139-138-42-42-97 95-39-39-42 43 81 81ZM259-720h442-442Z"/></symbol>
<symbol id="building" viewBox="0 -960 960 960"><path d="M200-280v-280h80v280h-80Zm240 0v-280h80v280h-80ZM80-120v-80h800v80H80Zm600-160v-280h80v280h-80ZM80-640v-80l400-200 400 200v80H80Zm178-80h444-444Zm0 0h444L480-830 258-720Z"/></symbol>
<symbol id="bulb-empty" viewBox="0 -960 960 960"><path d="M480-80q-33 0-56.5-23.5T400-160h160q0 33-23.5 56.5T480-80ZM320-200v-80h320v80H320Zm10-120q-69-41-109.5-110T180-580q0-125 87.5-212.5T480-880q125 0 212.5 87.5T780-580q0 81-40.5 150T630-320H330Zm24-80h252q45-32 69.5-79T700-580q0-92-64-156t-156-64q-92 0-156 64t-64 156q0 54 24.5 101t69.5 79Zm126 0Z"/></symbol>
<symbol id="bulb" viewBox="0 -960 960 960"><path d="M480-80q-26 0-47-12.5T400-126q-33 0-56.5-23.5T320-206v-142q-59-39-94.5-103T190-590q0-121 84.5-205.5T480-880q121 0 205.5 84.5T770-590q0 77-35.5 140T640-348v142q0 33-23.5 56.5T560-126q-12 21-33 33.5T480-80Zm-80-126h160v-36H400v36Zm0-76h160v-38H400v38Zm-8-118h58v-108l-88-88 42-42 76 76 76-76 42 42-88 88v108h58q54-26 88-76.5T690-590q0-88-61-149t-149-61q-88 0-149 61t-61 149q0 63 34 113.5t88 76.5Zm88-162Zm0-38Z"/></symbol>
<symbol id="chess" viewBox="0 -960 960 960"><path d="M200-160h560v-80H200v80Zm132-160h296l-23-160H355l-23 160ZM120-80v-160q0-33 23.5-56.5T200-320h52l22-160H160v-80h640v80H686l22 160h52q33 0 56.5 23.5T840-240v160H120Zm151-480-71-320q33 25 68 47t77 22q40 0 73.5-20.5T480-880q28 28 61.5 48.5T615-811q42 0 77-22t68-47l-71 320h-82l39-173-7.5 1q-7.5 1-23.5 1-36 0-70.5-11T480-773q-29 20-62.5 31T349-731q-18 0-26.5-1l-8.5-1 39 173h-82Zm209 80Zm0-80Zm0 400Z"/></symbol>
<symbol id="cognition" viewBox="0 -960 960 960"><path d="M491-339q70 0 119-45t49-109q0-57-36.5-96.5T534-629q-47 0-79.5 30T422-525q0 19 7.5 37t21.5 33l57-57q-3-2-4.5-5t-1.5-7q0-11 9-17.5t23-6.5q20 0 33 16.5t13 39.5q0 31-25.5 52.5T492-418q-47 0-79.5-38T380-549q0-29 11-55.5t31-46.5l-57-57q-32 31-49 72t-17 86q0 88 56 149.5T491-339ZM240-80v-172q-57-52-88.5-121.5T120-520q0-150 105-255t255-105q125 0 221.5 73.5T827-615l52 205q5 19-7 34.5T840-360h-80v120q0 33-23.5 56.5T680-160h-80v80h-80v-160h160v-200h108l-38-155q-23-91-98-148t-172-57q-116 0-198 81t-82 197q0 60 24.5 114t69.5 96l26 24v208h-80Zm254-360Z"/></symbol>
<symbol id="data-table" viewBox="0 -960 960 960"><path d="M200-120q-33 0-56.5-23.5T120-200v-560q0-33 23.5-56.5T200-840h560q33 0 56.5 23.5T840-760v560q0 33-23.5 56.5T760-120H200Zm0-507h560v-133H200v133Zm0 214h560v-134H200v134Zm0 213h560v-133H200v133Zm40-454v-80h80v80h-80Zm0 214v-80h80v80h-80Zm0 214v-80h80v80h-80Z"/></symbol>
<symbol id="document" viewBox="0 -960 960 960"><path d="M320-240h320v-80H320v80Zm0-160h320v-80H320v80ZM240-80q-33 0-56.5-23.5T160-160v-640q0-33 23.5-56.5T240-880h320l240 240v480q0 33-23.5 56.5T720-80H240Zm280-520v-200H240v640h480v-440H520ZM240-800v200-200 640-640Z"/></symbol>
<symbol id="engineering" viewBox="0 -960 960 960"><path d="M42-120v-112q0-33 17-62t47-44q51-26 115-44t141-18q77 0 141 18t115 44q30 15 47 44t17 62v112H42Zm80-80h480v-32q0-11-5.5-20T582-266q-36-18-92.5-36T362-320q-71 0-127.5 18T142-266q-9 5-14.5 14t-5.5 20v32Zm240-240q-66 0-113-47t-47-113h-10q-9 0-14.5-5.5T172-620q0-9 5.5-14.5T192-640h10q0-45 22-81t58-57v38q0 9 5.5 14.5T302-720q9 0 14.5-5.5T322-740v-54q9-3 19-4.5t21-1.5q11 0 21 1.5t19 4.5v54q0 9 5.5 14.5T422-720q9 0 14.5-5.5T442-740v-38q36 21 58 57t22 81h10q9 0 14.5 5.5T552-620q0 9-5.5 14.5T532-600h-10q0 66-47 113t-113 47Zm0-80q33 0 56.5-23.5T442-600H282q0 33 23.5 56.5T362-520Zm300 160-6-30q-6-2-11.5-4.5T634-402l-28 10-20-36 22-20v-24l-22-20 20-36 28 10q4-4 10-7t12-5l6-30h40l6 30q6 2 12 5t10 7l28-10 20 36-22 20v24l22 20-20 36-28-10q-5 5-10.5 7.5T708-390l-6 30h-40Zm20-70q12 0 21-9t9-21q0-12-9-21t-21-9q-12 0-21 9t-9 21q0 12 9 21t21 9Zm72-130-8-42q-9-3-16.5-7.5T716-620l-42 14-28-48 34-30q-2-5-2-8v-16q0-3 2-8l-34-30 28-48 42 14q6-6 13.5-10.5T746-798l8-42h56l8 42q9 3 16.5 7.5T848-780l42-14 28 48-34 30q2 5 2 8v16q0 3-2 8l34 30-28 48-42-14q-6 6-13.5 10.5T818-602l-8 42h-56Zm28-90q21 0 35.5-14.5T832-700q0-21-14.5-35.5T782-750q-21 0-35.5 14.5T732-700q0 21 14.5 35.5T782-650ZM362-200Z"/></symbol>
<symbol id="full-stacked-bar-chart" viewBox="0 -960 960 960"><path d="M160-160v-120h160v120H160Zm0-160v-160h160v160H160Zm0-200v-280h160v280H160Zm240 360v-280h160v280H400Zm0-320v-160h160v160H400Zm0-200v-120h160v120H400Zm240 520v-80h160v80H640Zm0-120v-160h160v160H640Zm0-200v-320h160v320H640Z"/></symbol>
<symbol id="gavel" viewBox="0 -960 960 960"><path d="M160-120v-80h480v80H160Zm226-194L160-540l84-86 228 226-86 86Zm254-254L414-796l86-84 226 226-86 86Zm184 408L302-682l56-56 522 522-56 56Z"/></symbol>
<symbol id="handshake" viewBox="0 -960 960 960"><path d="M475-160q4 0 8-2t6-4l328-328q12-12 17.5-27t5.5-30q0-16-5.5-30.5T817-607L647-777q-11-12-25.5-17.5T591-800q-15 0-30 5.5T534-777l-11 11 74 75q15 14 22 32t7 38q0 42-28.5 70.5T527-522q-20 0-38.5-7T456-550l-75-74-175 175q-3 3-4.5 6.5T200-435q0 8 6 14.5t14 6.5q4 0 8-2t6-4l136-136 56 56-135 136q-3 3-4.5 6.5T285-350q0 8 6 14t14 6q4 0 8-2t6-4l136-135 56 56-135 136q-3 2-4.5 6t-1.5 8q0 8 6 14t14 6q4 0 7.5-1.5t6.5-4.5l136-135 56 56-136 136q-3 3-4.5 6.5T454-180q0 8 6.5 14t14.5 6Zm-1 80q-37 0-65.5-24.5T375-166q-34-5-57-28t-28-57q-34-5-56.5-28.5T206-336q-38-5-62-33t-24-66q0-20 7.5-38.5T149-506l232-231 131 131q2 3 6 4.5t8 1.5q9 0 15-5.5t6-14.5q0-4-1.5-8t-4.5-6L398-777q-11-12-25.5-17.5T342-800q-15 0-30 5.5T285-777L144-635q-9 9-15 21t-8 24q-2 12 0 24.5t8 23.5l-58 58q-17-23-25-50.5T40-590q2-28 14-54.5T87-692l141-141q24-23 53.5-35t60.5-12q31 0 60.5 12t52.5 35l11 11 11-11q24-23 53.5-35t60.5-12q31 0 60.5 12t52.5 35l169 169q23 23 35 53t12 61q0 31-12 60.5T873-437L545-110q-14 14-32.5 22T474-80Zm-99-560Z"/></symbol>
<symbol id="megaphone" viewBox="0 -960 960 960"><path d="M720-440v-80h160v80H720Zm48 280-128-96 48-64 128 96-48 64Zm-80-480-48-64 128-96 48 64-128 96ZM200-200v-160h-40q-33 0-56.5-23.5T80-440v-80q0-33 23.5-56.5T160-600h160l200-120v480L320-360h-40v160h-80Zm240-182v-196l-98 58H160v80h182l98 58Zm120 36v-268q27 24 43.5 58.5T620-480q0 41-16.5 75.5T560-346ZM300-480Z"/></symbol>
<symbol id="model-training" viewBox="0 -960 960 960"><path d="M206-206q-41-48-63.5-107.5T120-440q0-150 105-255t255-105h8l-64-64 56-56 160 160-160 160-57-57 63-63h-6q-116 0-198 82t-82 198q0 51 16.5 96t46.5 81l-57 57Zm234-14q0-23-15.5-45.5t-34.5-47q-19-24.5-34.5-51T340-420q0-58 41-99t99-41q58 0 99 41t41 99q0 30-15.5 56.5t-34.5 51q-19 24.5-34.5 47T520-220h-80Zm0 100v-60h80v60h-80Zm314-86-57-57q30-36 46.5-81t16.5-96q0-66-27.5-122.5T657-657l57-57q58 50 92 120.5T840-440q0 67-22.5 126.5T754-206Z"/></symbol>
<symbol id="online-prediction" viewBox="0 -960 960 960"><path d="M197-197q-54-54-85.5-127T80-480q0-83 31.5-156T197-763l43 43q-47 47-73.5 108T140-480q0 71 26.5 132T240-240l-43 43Zm85-85q-38-38-60-89t-22-109q0-58 22-109t60-89l42 42q-30 30-47 70t-17 86q0 46 17 86t47 70l-42 42Zm158-18q0-23-15.5-45.5t-34.5-47q-19-24.5-34.5-51T340-500q0-58 41-99t99-41q58 0 99 41t41 99q0 30-15.5 56.5t-34.5 51q-19 24.5-34.5 47T520-300h-80Zm0 100v-60h80v60h-80Zm238-82-42-42q30-30 47-70t17-86q0-46-17-86t-47-70l42-42q38 38 60 89t22 109q0 58-22 109t-60 89Zm85 85-43-43q47-47 73.5-108T820-480q0-71-26.5-132T720-720l43-43q54 54 85.5 127T880-480q0 83-31.5 156T763-197Z"/></symbol>
<symbol id="pie-chart" viewBox="0 -960 960 960"><path d="M520-520h278q-15-110-91.5-186.5T520-798v278Zm-80 358v-636q-121 15-200.5 105.5T160-480q0 122 79.5 212.5T440-162Zm80 0q110-14 187-91t91-187H520v278Zm-40-318Zm0 400q-83 0-156-31.5T197-197q-54-54-85.5-127T80-480q0-83 31.5-156T197-763q54-54 127-85.5T480-880q83 0 155.5 31.5t127 86q54.5 54.5 86 127T880-480q0 82-31.5 155T763-197.5q-54 54.5-127 86T480-80Z"/></symbol>
<symbol id="psychology" viewBox="0 -960 960 960"><path d="M240-80v-172q-57-52-88.5-121.5T120-520q0-150 105-255t255-105q125 0 221.5 73.5T827-615l52 205q5 19-7 34.5T840-360h-80v120q0 33-23.5 56.5T680-160h-80v80h-80v-160h160v-200h108l-38-155q-23-91-98-148t-172-57q-116 0-198 81t-82 197q0 60 24.5 114t69.5 96l26 24v208h-80Zm254-360Zm-14 120q17 0 28.5-11.5T520-360q0-17-11.5-28.5T480-400q-17 0-28.5 11.5T440-360q0 17 11.5 28.5T480-320Zm-30-128h61q0-25 6.5-40.5T544-526q18-20 35-40.5t17-53.5q0-42-32.5-71T483-720q-40 0-72.5 23T365-637l55 23q7-22 24.5-35.5T483-663q22 0 36.5 12t14.5 31q0 21-12.5 37.5T492-549q-20 21-31 42t-11 59Z"/></symbol>
<symbol id="rising-graph" viewBox="0 -960 960 960"><path d="M120-120v-80l80-80v160h-80Zm160 0v-240l80-80v320h-80Zm160 0v-320l80 81v239h-80Zm160 0v-239l80-80v319h-80Zm160 0v-400l80-80v480h-80ZM120-327v-113l280-280 160 160 280-280v113L560-447 400-607 120-327Z"/></symbol>
<symbol id="search-document" viewBox="0 -960 960 960"><path d="M200-800v241-1 400-640 200-200Zm80 400h140q9-23 22-43t30-37H280v80Zm0 160h127q-5-20-6.5-40t.5-40H280v80ZM200-80q-33 0-56.5-23.5T120-160v-640q0-33 23.5-56.5T200-880h320l240 240v100q-19-8-39-12.5t-41-6.5v-41H480v-200H200v640h241q16 24 36 44.5T521-80H200Zm460-120q42 0 71-29t29-71q0-42-29-71t-71-29q-42 0-71 29t-29 71q0 42 29 71t71 29ZM864-40 756-148q-21 14-45.5 21t-50.5 7q-75 0-127.5-52.5T480-300q0-75 52.5-127.5T660-480q75 0 127.5 52.5T840-300q0 26-7 50.5T812-204L920-96l-56 56Z"/></symbol>
<symbol id="search-inside" viewBox="0 -960 960 960"><path d="M80-200v-80h400v80H80Zm0-200v-80h200v80H80Zm0-200v-80h200v80H80Zm744 400L670-354q-24 17-52.5 25.5T560-320q-83 0-141.5-58.5T360-520q0-83 58.5-141.5T560-720q83 0 141.5 58.5T760-520q0 29-8.5 57.5T726-410l154 154-56 56ZM560-400q50 0 85-35t35-85q0-50-35-85t-85-35q-50 0-85 35t-35 85q0 50 35 85t85 35Z"/></symbol>
<symbol id="search-insights" viewBox="0 -960 960 960"><path d="M400-320q100 0 170-70t70-170q0-100-70-170t-170-70q-100 0-170 70t-70 170q0 100 70 170t170 70Zm-40-120v-280h80v280h-80Zm-140 0v-200h80v200h-80Zm280 0v-160h80v160h-80ZM824-80 597-307q-41 32-91 49.5T400-240q-134 0-227-93T80-560q0-134 93-227t227-93q134 0 227 93t93 227q0 56-17.5 106T653-363l227 227-56 56Z"/></symbol>
<symbol id="search-stats" viewBox="0 -960 960 960"><path d="m105-233-65-47 200-320 120 140 160-260 109 163q-23 1-43.5 5.5T545-539l-22-33-152 247-121-141-145 233ZM863-40 738-165q-20 14-44.5 21t-50.5 7q-75 0-127.5-52.5T463-317q0-75 52.5-127.5T643-497q75 0 127.5 52.5T823-317q0 26-7 50.5T795-221L920-97l-57 57ZM643-217q42 0 71-29t29-71q0-42-29-71t-71-29q-42 0-71 29t-29 71q0 42 29 71t71 29Zm89-320q-19-8-39.5-13t-42.5-6l205-324 65 47-188 296Z"/></symbol>
<symbol id="sticky-note" viewBox="0 -960 960 960"><path d="M200-200h360v-200h200v-360H200v560Zm0 80q-33 0-56.5-23.5T120-200v-560q0-33 23.5-56.5T200-840h560q33 0 56.5 23.5T840-760v400L600-120H200Zm80-280v-80h200v80H280Zm0-160v-80h400v80H280Zm-80 360v-560 560Z"/></symbol>
<symbol id="thinking" viewBox="0 -960 960 960"><path d="M240-80v-172q-57-52-88.5-121.5T120-520q0-150 105-255t255-105q125 0 221.5 73.5T827-615l52 205q5 19-7 34.5T840-360h-80v120q0 33-23.5 56.5T680-160h-80v80h-80v-160h160v-200h108l-38-155q-23-91-98-148t-172-57q-116 0-198 81t-82 197q0 60 24.5 114t69.5 96l26 24v208h-80Zm254-360Zm-54 80h80l6-50q8-3 14.5-7t11.5-9l46 20 40-68-40-30q2-8 2-16t-2-16l40-30-40-68-46 20q-5-5-11.5-9t-14.5-7l-6-50h-80l-6 50q-8 3-14.5 7t-11.5 9l-46-20-40 68 40 30q-2 8-2 16t2 16l-40 30 40 68 46-20q5 5 11.5 9t14.5 7l6 50Zm40-100q-25 0-42.5-17.5T420-520q0-25 17.5-42.5T480-580q25 0 42.5 17.5T540-520q0 25-17.5 42.5T480-460Z"/></symbol>
</svg>
