<?xml version="1.0" encoding="utf-8"?><svg xmlns="http://www.w3.org/2000/svg" xmlns:xlink="http://www.w3.org/1999/xlink">
    <symbol viewBox="0 0 24 24" fill="currentColor" id="edit" xmlns="http://www.w3.org/2000/svg">
        <path d="M17 22H5a3 3 0 0 1-3-3V7a3 3 0 0 1 3-3h4a1 1 0 0 1 0 2H5a1 1 0 0 0-1 1v12a1 1 0 0 0 1 1h12a1 1 0 0 0 1-1v-4a1 1 0 0 1 2 0v4a3 3 0 0 1-3 3Z" />
        <path d="m14.6 5.87-4.95 5a.41.41 0 0 0-.13.23l-1 3.82a.48.48 0 0 0 .13.48.47.47 0 0 0 .35.1.32.32 0 0 0 .13 0l3.82-1a.41.41 0 0 0 .23-.13l4.95-4.97ZM21 4.45 19.55 3a1.52 1.52 0 0 0-2.13 0L16 4.45 19.55 8 21 6.58a1.52 1.52 0 0 0 0-2.13Z" />
    </symbol>
    <symbol viewBox="0 0 24 24" fill="currentColor" id="list-add" xmlns="http://www.w3.org/2000/svg">
        <path d="M19 7H8a1 1 0 0 1 0-2h11a1 1 0 0 1 0 2ZM19 11H8a1 1 0 0 1 0-2h11a1 1 0 0 1 0 2ZM13 15H8a1 1 0 0 1 0-2h5a1 1 0 0 1 0 2Z" />
        <circle cx="4" cy="6" r="1" />
        <circle cx="4" cy="10" r="1" />
        <circle cx="4" cy="14" r="1" />
        <path d="M13 19H8a1 1 0 0 1 0-2h5a1 1 0 0 1 0 2Z" />
        <circle cx="4" cy="18" r="1" />
        <path d="M21 15h-1v-1a1 1 0 0 0-2 0v1h-1a1 1 0 0 0 0 2h1v1a1 1 0 0 0 2 0v-1h1a1 1 0 0 0 0-2Z" />
    </symbol>
    <symbol viewBox="0 0 24 24" fill="currentColor" id="list-remove" xmlns="http://www.w3.org/2000/svg">
        <path d="M19 7H8a1 1 0 0 1 0-2h11a1 1 0 0 1 0 2ZM19 11H8a1 1 0 0 1 0-2h11a1 1 0 0 1 0 2ZM13 15H8a1 1 0 0 1 0-2h5a1 1 0 0 1 0 2Z" />
        <circle cx="4" cy="6" r="1" />
        <circle cx="4" cy="10" r="1" />
        <circle cx="4" cy="14" r="1" />
        <path d="M13 19H8a1 1 0 0 1 0-2h5a1 1 0 0 1 0 2Z" />
        <circle cx="4" cy="18" r="1" />
        <path d="m20.41 16 1.3-1.29a1 1 0 0 0-1.42-1.42L19 14.59l-1.29-1.3a1 1 0 0 0-1.42 1.42l1.3 1.29-1.3 1.29a1 1 0 0 0 0 1.42 1 1 0 0 0 1.42 0l1.29-1.3 1.29 1.3a1 1 0 0 0 1.42 0 1 1 0 0 0 0-1.42Z" />
    </symbol>
    <symbol fill="none" viewBox="0 0 100 101" id="logo-dark" xmlns="http://www.w3.org/2000/svg">
        <path d="M99.035 26.965H69.62c-1.876 0-3.396-1.55-3.396-3.462 0-8.113-6.568-14.713-14.642-14.713-8.075 0-14.643 6.6-14.643 14.713 0 1.912-1.52 3.462-3.396 3.462H.965V20.04H30.42c1.646-10.29 10.51-18.174 21.162-18.174S71.097 9.75 72.743 20.04h26.292v6.924Z" fill="#0AC374" />
        <path fill-rule="evenodd" clip-rule="evenodd" d="M51.583 2.85c-10.178 0-18.639 7.533-20.209 17.35l-.132.825H1.931v4.956h31.613c1.342 0 2.431-1.11 2.431-2.478 0-8.67 7.013-15.696 15.608-15.696 8.594 0 15.607 7.027 15.607 15.696 0 1.369 1.089 2.478 2.431 2.478H98.07v-4.956H71.923l-.132-.825C70.22 10.384 61.76 2.85 51.583 2.85ZM29.616 19.058C31.668 8.7 40.742.883 51.583.883c10.84 0 19.913 7.817 21.966 18.175H100v8.89H69.62c-2.409 0-4.362-1.99-4.362-4.445 0-7.556-6.123-13.729-13.676-13.729-7.554 0-13.677 6.173-13.677 13.729 0 2.455-1.953 4.446-4.362 4.446H0v-8.892h29.616Z" fill="#0AC374" />
        <path d="M99.034 92.976H.965v6.923h98.07v-6.923Z" fill="#7FE5F6" />
        <path fill-rule="evenodd" clip-rule="evenodd" d="M0 91.992h100v8.891H0v-8.891Zm1.93 1.967v4.956H98.07V93.96H1.931Z" fill="#7FE5F6" />
        <path d="M10.087 84.853V57.045l6.794-3.625v27.938l-6.794 3.495Z" fill="#7FE5F6" />
        <path fill-rule="evenodd" clip-rule="evenodd" d="M17.847 51.795v30.169l-8.725 4.488V56.449l8.725-4.654Zm-6.794 5.845v25.614l4.863-2.501V55.046l-4.863 2.594Z" fill="#7FE5F6" />
        <path d="M99.035 37.185H.965v6.923h98.07v-6.923Z" fill="#7FE5F6" />
        <path fill-rule="evenodd" clip-rule="evenodd" d="M0 36.2h100v8.892H0v-8.891Zm1.93 1.968v4.956h96.14v-4.956H1.93Z" fill="#7FE5F6" />
        <path d="M83.968 84.853V57.045l6.794-3.625v27.938l-6.794 3.495Z" fill="#7FE5F6" />
        <path fill-rule="evenodd" clip-rule="evenodd" d="M91.727 51.795v30.169l-8.724 4.488V56.449l8.724-4.654Zm-6.794 5.845v25.614l4.863-2.501V55.046l-4.863 2.594Z" fill="#7FE5F6" />
        <path d="M47.028 84.853V57.045l6.793-3.625v27.938l-6.793 3.495Z" fill="#0AC374" />
        <path fill-rule="evenodd" clip-rule="evenodd" d="M54.787 51.795v30.169l-8.725 4.488V56.449l8.725-4.654Zm-6.794 5.845v25.614l4.863-2.501V55.046l-4.863 2.594Z" fill="#0AC374" />
        <path d="M65.498 84.853V57.045l6.793-3.625v27.938l-6.793 3.495Z" fill="#7FE5F6" />
        <path fill-rule="evenodd" clip-rule="evenodd" d="M73.257 51.795v30.169l-8.725 4.488V56.449l8.725-4.654Zm-6.794 5.845v25.614l4.863-2.501V55.046l-4.863 2.594Z" fill="#7FE5F6" />
        <path d="M28.558 84.853V57.045l6.793-3.625v27.938l-6.793 3.495Z" fill="#7FE5F6" />
        <path fill-rule="evenodd" clip-rule="evenodd" d="M36.317 51.795v30.169l-8.725 4.488V56.449l8.725-4.654Zm-6.794 5.845v25.614l4.863-2.501V55.046l-4.863 2.594Z" fill="#7FE5F6" />
    </symbol>
    <symbol fill="currentColor" viewBox="0 0 100 101" id="logo-white" xmlns="http://www.w3.org/2000/svg">
        <path d="M99.035 26.965H69.62c-1.876 0-3.396-1.55-3.396-3.462 0-8.113-6.568-14.713-14.642-14.713-8.075 0-14.643 6.6-14.643 14.713 0 1.912-1.52 3.462-3.396 3.462H.965V20.04H30.42c1.646-10.29 10.51-18.174 21.162-18.174S71.097 9.75 72.743 20.04h26.292v6.924Z" fill="currentColor" />
        <path fill-rule="evenodd" clip-rule="evenodd" d="M51.583 2.85c-10.178 0-18.639 7.533-20.209 17.35l-.132.825H1.931v4.956h31.613c1.342 0 2.431-1.11 2.431-2.478 0-8.67 7.013-15.696 15.608-15.696 8.594 0 15.607 7.027 15.607 15.696 0 1.369 1.089 2.478 2.431 2.478H98.07v-4.956H71.923l-.132-.825C70.22 10.384 61.76 2.85 51.583 2.85ZM29.616 19.058C31.668 8.7 40.742.883 51.583.883c10.84 0 19.913 7.817 21.966 18.175H100v8.89H69.62c-2.409 0-4.362-1.99-4.362-4.445 0-7.556-6.123-13.729-13.676-13.729-7.554 0-13.677 6.173-13.677 13.729 0 2.455-1.953 4.446-4.362 4.446H0v-8.892h29.616Z" fill="currentColor" />
        <path d="M99.034 92.976H.965v6.923h98.07v-6.923Z" fill="currentColor" />
        <path fill-rule="evenodd" clip-rule="evenodd" d="M0 91.992h100v8.891H0v-8.891Zm1.93 1.967v4.956H98.07V93.96H1.931Z" fill="currentColor" />
        <path d="M10.087 84.853V57.045l6.794-3.625v27.938l-6.794 3.495Z" fill="currentColor" />
        <path fill-rule="evenodd" clip-rule="evenodd" d="M17.847 51.795v30.169l-8.725 4.488V56.449l8.725-4.654Zm-6.794 5.845v25.614l4.863-2.501V55.046l-4.863 2.594Z" fill="currentColor" />
        <path d="M99.035 37.185H.965v6.923h98.07v-6.923Z" fill="currentColor" />
        <path fill-rule="evenodd" clip-rule="evenodd" d="M0 36.2h100v8.892H0v-8.891Zm1.93 1.968v4.956h96.14v-4.956H1.93Z" fill="currentColor" />
        <path d="M83.968 84.853V57.045l6.794-3.625v27.938l-6.794 3.495Z" fill="currentColor" />
        <path fill-rule="evenodd" clip-rule="evenodd" d="M91.727 51.795v30.169l-8.724 4.488V56.449l8.724-4.654Zm-6.794 5.845v25.614l4.863-2.501V55.046l-4.863 2.594Z" fill="currentColor" />
        <path d="M47.028 84.853V57.045l6.793-3.625v27.938l-6.793 3.495Z" fill="currentColor" />
        <path fill-rule="evenodd" clip-rule="evenodd" d="M54.787 51.795v30.169l-8.725 4.488V56.449l8.725-4.654Zm-6.794 5.845v25.614l4.863-2.501V55.046l-4.863 2.594Z" fill="currentColor" />
        <path d="M65.498 84.853V57.045l6.793-3.625v27.938l-6.793 3.495Z" fill="currentColor" />
        <path fill-rule="evenodd" clip-rule="evenodd" d="M73.257 51.795v30.169l-8.725 4.488V56.449l8.725-4.654Zm-6.794 5.845v25.614l4.863-2.501V55.046l-4.863 2.594Z" fill="currentColor" />
        <path d="M28.558 84.853V57.045l6.793-3.625v27.938l-6.793 3.495Z" fill="currentColor" />
        <path fill-rule="evenodd" clip-rule="evenodd" d="M36.317 51.795v30.169l-8.725 4.488V56.449l8.725-4.654Zm-6.794 5.845v25.614l4.863-2.501V55.046l-4.863 2.594Z" fill="currentColor" />
    </symbol>
</svg>