<svg width="100" height="101" viewBox="0 0 100 101" fill="none" xmlns="http://www.w3.org/2000/svg">
<path d="M99.0346 26.965L69.6213 26.9649C67.7454 26.9649 66.2245 25.4148 66.2245 23.5031C66.2245 15.3903 59.6565 8.79044 51.5825 8.7904C43.5084 8.79036 36.9404 15.3902 36.9403 23.5029C36.9403 25.4147 35.4194 26.9647 33.5435 26.9647L0.965561 26.9645L0.965584 20.041L30.4212 20.0411C32.0674 9.7504 40.9302 1.86677 51.5825 1.86682C62.2348 1.86688 71.0975 9.7506 72.7436 20.0413L99.0346 20.0414L99.0346 26.965Z" fill="#0AC374"/>
<path fill-rule="evenodd" clip-rule="evenodd" d="M51.5825 2.85069C41.4048 2.85063 32.9443 10.3833 31.374 20.1994L31.242 21.025L1.93095 21.0248L1.93093 25.9807L33.5435 25.9809C34.8863 25.9809 35.975 24.8713 35.975 23.5029C35.975 14.8338 42.9882 7.80653 51.5825 7.80657C60.1768 7.80662 67.1899 14.8339 67.1899 23.5031C67.1898 24.8715 68.2786 25.981 69.6213 25.981L98.0692 25.9812L98.0693 21.0253L71.9229 21.0252L71.7908 20.1996C70.2206 10.3835 61.7602 2.85074 51.5825 2.85069ZM29.6162 19.0573C31.6684 8.6994 40.7418 0.88294 51.5825 0.882996C62.4233 0.883051 71.4965 8.69961 73.5486 19.0575L100 19.0576L99.9999 27.9489L69.6213 27.9487C67.2123 27.9487 65.2591 25.9582 65.2591 23.5031C65.2592 15.9468 59.1363 9.7743 51.5825 9.77426C44.0287 9.77422 37.9057 15.9467 37.9057 23.5029C37.9057 25.9581 35.9525 27.9486 33.5435 27.9486L0.000198364 27.9484L0.000228515 19.0571L29.6162 19.0573Z" fill="#0AC374"/>
<path d="M99.0344 92.9756H0.965363V99.8991H99.0344V92.9756Z" fill="#7FE5F6"/>
<path fill-rule="evenodd" clip-rule="evenodd" d="M0 91.9917H99.9998V100.883H0V91.9917ZM1.93072 93.9594V98.9153H98.069V93.9594H1.93072Z" fill="#7FE5F6"/>
<path d="M10.0874 84.8531L10.0876 57.0445L16.8812 53.4202L16.8811 81.3582L10.0874 84.8531Z" fill="#7FE5F6"/>
<path fill-rule="evenodd" clip-rule="evenodd" d="M17.8466 51.7946L17.8464 81.9637L9.12209 86.4518L9.12222 56.449L17.8466 51.7946ZM11.0529 57.6399L11.0528 83.2544L15.9157 80.7527L15.9158 55.0457L11.0529 57.6399Z" fill="#7FE5F6"/>
<path d="M99.0346 37.1846H0.96553V44.1081H99.0346V37.1846Z" fill="#7FE5F6"/>
<path fill-rule="evenodd" clip-rule="evenodd" d="M0.000167847 36.2007H99.9999V45.092H0.000167847V36.2007ZM1.93089 38.1684V43.1243H98.0692V38.1684H1.93089Z" fill="#7FE5F6"/>
<path d="M83.9679 84.8531L83.968 57.0445L90.7617 53.4202L90.7615 81.3582L83.9679 84.8531Z" fill="#7FE5F6"/>
<path fill-rule="evenodd" clip-rule="evenodd" d="M91.727 51.7946L91.7269 81.9637L83.0026 86.4518L83.0027 56.449L91.727 51.7946ZM84.9334 57.6399L84.9333 83.2544L89.7962 80.7527L89.7963 55.0457L84.9334 57.6399Z" fill="#7FE5F6"/>
<path d="M47.0277 84.8531L47.0278 57.0445L53.8214 53.4202L53.8213 81.3582L47.0277 84.8531Z" fill="#0AC374"/>
<path fill-rule="evenodd" clip-rule="evenodd" d="M54.7868 51.7946L54.7867 81.9637L46.0623 86.4518L46.0624 56.449L54.7868 51.7946ZM47.9932 57.6399L47.9931 83.2544L52.8559 80.7527L52.8561 55.0457L47.9932 57.6399Z" fill="#0AC374"/>
<path d="M65.4978 84.8531L65.4979 57.0445L72.2915 53.4202L72.2914 81.3582L65.4978 84.8531Z" fill="#7FE5F6"/>
<path fill-rule="evenodd" clip-rule="evenodd" d="M73.2569 51.7946L73.2568 81.9637L64.5324 86.4518L64.5326 56.449L73.2569 51.7946ZM66.4633 57.6399L66.4632 83.2544L71.3261 80.7527L71.3262 55.0457L66.4633 57.6399Z" fill="#7FE5F6"/>
<path d="M28.5576 84.8531L28.5577 57.0445L35.3513 53.4202L35.3512 81.3582L28.5576 84.8531Z" fill="#7FE5F6"/>
<path fill-rule="evenodd" clip-rule="evenodd" d="M36.3167 51.7946L36.3166 81.9637L27.5922 86.4518L27.5923 56.449L36.3167 51.7946ZM29.5231 57.6399L29.5229 83.2544L34.3858 80.7527L34.3859 55.0457L29.5231 57.6399Z" fill="#7FE5F6"/>
</svg>
